<svg width="164" height="44" fill="none" xmlns="http://www.w3.org/2000/svg"><path d="M35.4 43.548H8.58a7.978 7.978 0 01-7.978-7.979V8.751A7.978 7.978 0 018.58.77H35.4a7.978 7.978 0 017.979 7.98v26.818a7.978 7.978 0 01-7.98 7.979z" fill="#292F36"/><path d="M29.697 22.553c.763.957 1.15 2.07 1.15 3.33 0 1.852-.617 3.305-1.852 4.335-1.235 1.029-3.003 1.561-5.303 1.561h-10.05V10.167h9.808c2.203 0 3.898.485 5.097 1.441 1.199.957 1.804 2.325 1.804 4.092 0 1.308-.351 2.386-1.041 3.258-.69.871-1.598 1.428-2.724 1.695 1.32.314 2.348.944 3.111 1.9zm-10.836-3.547h3.426c1.817 0 2.725-.775 2.725-2.325 0-1.55-.933-2.324-2.785-2.324H18.86v4.649zm6.635 6.15c0-.774-.254-1.38-.763-1.816-.508-.436-1.235-.653-2.167-.653h-3.693v4.855h3.73c1.924-.012 2.893-.8 2.893-2.386z" fill="#fff"/><path d="M68.163 31.78l-4.674-8.161h-1.186v8.16h-5.23V10.167h8.923c1.707 0 3.16.29 4.334.884 1.187.594 2.07 1.405 2.664 2.434.593 1.029.884 2.203.884 3.535 0 1.574-.436 2.906-1.296 4.008-.872 1.102-2.119 1.852-3.777 2.264l5.133 8.5h-5.775v-.013zm-5.86-11.733h3.232c1.042 0 1.805-.23 2.289-.69.484-.46.738-1.138.738-2.034 0-.86-.254-1.526-.75-2.022-.497-.484-1.26-.739-2.277-.739h-3.232v5.485zm35.232 7.797h-8.1l-1.343 3.947h-5.497l7.918-21.454h6.017l7.919 21.454h-5.558l-1.356-3.947zm-1.343-3.983l-2.688-7.943-2.725 7.943h5.413zm37.109 7.919h-5.23l-8.742-13.27v13.27h-5.23V10.166h5.23l8.742 13.391v-13.39h5.23v21.611zm29.325-5.207c-.908 1.635-2.215 2.918-3.91 3.838-1.707.92-3.705 1.38-6.006 1.38h-8.16V10.18h8.16c2.325 0 4.335.447 6.018 1.343 1.695.896 2.99 2.156 3.898 3.79.908 1.635 1.356 3.5 1.356 5.63 0 2.107-.46 3.983-1.356 5.63zm-5.63-1.09c1.126-1.077 1.695-2.603 1.695-4.552 0-1.961-.569-3.475-1.695-4.552-1.126-1.078-2.712-1.623-4.758-1.623h-2.47v12.35h2.47c2.046 0 3.632-.533 4.758-1.623z" fill="#292F36"/></svg>