<svg version="1.1" id="Capa_1" xmlns="http://www.w3.org/2000/svg" x="0" y="0" viewBox="0 0 512.156 512.156" xml:space="preserve"><path d="M505.879 199.82C479.583 83.027 375.847.061 256.13.075 151.047.025 56.606 64.198 17.955 161.915S4.294 371.045 80.979 442.892s189.487 89.534 284.482 44.606c.069-.03.143-.015.211-.047.065-.031.102-.091.166-.123 108.17-51.296 166.337-170.716 140.041-287.508zM386.773 56.171l-48.317 16.913c-.98.347-1.89.869-2.683 1.542a214.481 214.481 0 00-28.125 26.858 77.3 77.3 0 01-18.221 9.642c-28.904 2.033-64.171 5.475-71.346 10.45-8.783 6.117-10.25 25.058-9.938 39.875a8.517 8.517 0 00.963 3.75l23.483 45.167c3.882 7.249 12.852 10.058 20.175 6.317 1.975-.992 3.975-2.108 5.987-3.233 1.642-.917 3.292-1.842 5.275-2.859 2.954-1.483 6.625-3.292 8.429-2.775.486.15.953.357 1.392.617a10.539 10.539 0 01-2.775 3.9 1027.157 1027.157 0 00-18.075 20.25l-20.104 23.225a87.823 87.823 0 00-2.346 2.783 39.795 39.795 0 00-7.121 28.842l.838 5.717a22.462 22.462 0 01-4.271 16.65l-16.825 22.783a34.527 34.527 0 00-3.733 6.067l-17.729 36.892H167.68a16.364 16.364 0 004.229-15.45l-16.263-65.7h.012a12.853 12.853 0 00-.5-1.95l-11.746-31.575a11.467 11.467 0 01-.708-4.025v-1.533a28.673 28.673 0 00-16-25.842l-.75-.333a27.872 27.872 0 00-15.983-2.958l-23.054 2.567a11.14 11.14 0 01-9.805-3.941l-14.475-17.117a11.843 11.843 0 01-2.775-7.583v-15.108a11.57 11.57 0 013.3-8.242l18.658-18.842a30.46 30.46 0 004.279-5.542l6.025-10.233a11.144 11.144 0 019.708-5.525h24.7a11.055 11.055 0 018.471 3.883 28.642 28.642 0 0021.067 9.342h9.083a8.532 8.532 0 008.166-6.059l7.892-26.025a8.545 8.545 0 00-2.429-8.792 56.42 56.42 0 01-12.108-15.633c-5.567-13.467-29.879-22.175-36.542-23.225a71.428 71.428 0 01-12.191-8.76c79.975-56.987 186.726-59.04 268.832-5.172zM124.739 455.675C57.586 411.479 17.17 336.467 17.197 256.075a238.549 238.549 0 0186.82-184.118c15.51 12.99 20.406 14.67 23.701 15.034a49.933 49.933 0 0123.171 12.817 63.432 63.432 0 0012.5 17.917l-4.563 15.042h-2.754a11.467 11.467 0 01-8.35-3.65 28.128 28.128 0 00-21.187-9.575h-24.7a28.417 28.417 0 00-24.417 13.933l-5.917 10.058c-.51.842-1.11 1.627-1.787 2.342l-18.667 18.85a28.54 28.54 0 00-8.25 20.267V200.1a29.004 29.004 0 006.771 18.558l14.517 17.159a28.27 28.27 0 0024.771 9.883l23-2.558a11.12 11.12 0 016.613 1.317l.837.383a11.604 11.604 0 016.333 10.467v1.533a28.544 28.544 0 001.808 10.058l11.504 30.908c.037.175.071.333.096.425l16.204 65.592-1.621 1.567a16.915 16.915 0 00-2.771 18.825 15.298 15.298 0 0013.617 8.392h17.229a16.246 16.246 0 0014.608-9.1l18.496-37.45a18.65 18.65 0 012.025-3.25l16.85-22.825a39.408 39.408 0 007.475-29.217l-.838-5.733a22.547 22.547 0 013.75-16.042l1.675-1.958a97.266 97.266 0 001.838-2.142l18.308-21.133a1032.827 1032.827 0 0117.708-19.833 20.585 20.585 0 006.913-18.674 18.831 18.831 0 00-13.021-13.742 28.841 28.841 0 00-21.6 4.067c-1.829.942-3.658 1.958-5.475 2.975-1.237.691-2.467 1.383-3.683 2.033l-21.55-41.45a73.245 73.245 0 012.929-23.558 466.698 466.698 0 0163.846-7.517 8.719 8.719 0 002.558-.583c10.45-4.15 23.708-10.45 27.479-16.8a237.792 237.792 0 0123.592-22l58.084-20.329a239.402 239.402 0 0184.177 129.473l-3.103-1.628a31.336 31.336 0 00-18.871-3.358l-44.012 5.792c-8.199.943-14.378 7.897-14.35 16.15v7.85h-8.875a16.65 16.65 0 00-13.95 7.717l-2.846 4.483a46.807 46.807 0 00-5.008 38.975l6.754 21.742-5.979 2.067a16.35 16.35 0 00-9.646 9.125 16.104 16.104 0 00.341 13.058l19.808 42.025-12.571.15-23.829-19.008a16.733 16.733 0 00-14.846-2.717l-35.154 10.6a16.347 16.347 0 00-7.109 26.675l4.888 5.233a16.9 16.9 0 006.379 4.083l14.342 4.583v15.867a18.087 18.087 0 001.5 6.975l28.885 61.241c-73.823 31.821-158.704 24.37-225.858-19.826zm241.258 12.47l-28.717-60.861v-15.867a16.39 16.39 0 00-10.912-15.475l-14.588-5.025-3.854-4.133 33.337-10.342 23.575 18.808a16.594 16.594 0 0010.333 3.617h13.992a16.42 16.42 0 0013.871-7.5 16.203 16.203 0 001.1-15.592L384.16 313.4l5.862-2.025c8.207-2.923 12.661-11.787 10.108-20.117l-7.013-22.575a29.752 29.752 0 013.171-24.767l2.35-4.225h9.554c8.999.037 16.33-7.217 16.388-16.217v-7.992l43.617-5.742a14.132 14.132 0 018.65 1.583l3.404 1.784a31.968 31.968 0 0011.474 3.385c17.301 102.305-33.534 204.055-125.728 251.653z"/></svg>