<?xml version="1.0" encoding="utf-8"?><svg xmlns="http://www.w3.org/2000/svg" xmlns:xlink="http://www.w3.org/1999/xlink"><symbol viewBox="0 0 341.435 341.435" xml:space="preserve" id="arrow-right" xmlns="http://www.w3.org/2000/svg"><path d="M328.151 140.759 199.225 21.181l-29.014 31.283 127.656 118.4-127.479 118.09 28.995 31.3L328.022 201.09c17.831-16.518 17.893-43.855.129-60.331z"/><path d="M0 149.344h298.667v42.667H0z"/></symbol><symbol viewBox="0 0 26 26" id="arrow-sm" xmlns="http://www.w3.org/2000/svg"><path d="m23.516 9.434-9.75 9.75a1.08 1.08 0 0 1-1.532 0l-9.75-9.75a1.082 1.082 0 1 1 1.532-1.532L13 16.886l8.984-8.984a1.082 1.082 0 1 1 1.532 1.532z"/></symbol><symbol viewBox="0 0 512 512" xml:space="preserve" id="email" xmlns="http://www.w3.org/2000/svg"><path d="M452 68H60C26.916 68 0 94.916 0 128v256c0 33.084 26.916 60 60 60h392c33.084 0 60-26.916 60-60V128c0-33.084-26.916-60-60-60zm20 316c0 11.028-8.972 20-20 20H60c-11.028 0-20-8.972-20-20V128c0-11.028 8.972-20 20-20h392c11.028 0 20 8.972 20 20v256z"/><path d="M468.604 92.937 256 251.074 43.396 92.937l-23.874 32.095L256 300.926l236.478-175.894z"/></symbol><symbol viewBox="0 0 11 19" id="facebook" xmlns="http://www.w3.org/2000/svg"><path d="m9.684 10.875.492-3.234h-3.13V5.53c0-.914.423-1.758 1.829-1.758h1.441V.996S9.016.75 7.786.75C5.218.75 3.53 2.332 3.53 5.145V7.64H.648v3.234h2.883v7.875h3.516v-7.875h2.637Z"/></symbol><symbol viewBox="0 0 512.156 512.156" xml:space="preserve" id="globe" xmlns="http://www.w3.org/2000/svg"><path d="M505.879 199.82C479.583 83.027 375.847.061 256.13.075 151.047.025 56.606 64.198 17.955 161.915S4.294 371.045 80.979 442.892s189.487 89.534 284.482 44.606c.069-.03.143-.015.211-.047.065-.031.102-.091.166-.123 108.17-51.296 166.337-170.716 140.041-287.508zM386.773 56.171l-48.317 16.913c-.98.347-1.89.869-2.683 1.542a214.481 214.481 0 0 0-28.125 26.858 77.3 77.3 0 0 1-18.221 9.642c-28.904 2.033-64.171 5.475-71.346 10.45-8.783 6.117-10.25 25.058-9.938 39.875a8.517 8.517 0 0 0 .963 3.75l23.483 45.167c3.882 7.249 12.852 10.058 20.175 6.317 1.975-.992 3.975-2.108 5.987-3.233 1.642-.917 3.292-1.842 5.275-2.859 2.954-1.483 6.625-3.292 8.429-2.775.486.15.953.357 1.392.617a10.539 10.539 0 0 1-2.775 3.9 1027.157 1027.157 0 0 0-18.075 20.25l-20.104 23.225a87.823 87.823 0 0 0-2.346 2.783 39.795 39.795 0 0 0-7.121 28.842l.838 5.717a22.462 22.462 0 0 1-4.271 16.65l-16.825 22.783a34.527 34.527 0 0 0-3.733 6.067l-17.729 36.892H167.68a16.364 16.364 0 0 0 4.229-15.45l-16.263-65.7h.012a12.853 12.853 0 0 0-.5-1.95l-11.746-31.575a11.467 11.467 0 0 1-.708-4.025v-1.533a28.673 28.673 0 0 0-16-25.842l-.75-.333a27.872 27.872 0 0 0-15.983-2.958l-23.054 2.567a11.14 11.14 0 0 1-9.805-3.941l-14.475-17.117a11.843 11.843 0 0 1-2.775-7.583v-15.108a11.57 11.57 0 0 1 3.3-8.242l18.658-18.842a30.46 30.46 0 0 0 4.279-5.542l6.025-10.233a11.144 11.144 0 0 1 9.708-5.525h24.7a11.055 11.055 0 0 1 8.471 3.883 28.642 28.642 0 0 0 21.067 9.342h9.083a8.532 8.532 0 0 0 8.166-6.059l7.892-26.025a8.545 8.545 0 0 0-2.429-8.792 56.42 56.42 0 0 1-12.108-15.633c-5.567-13.467-29.879-22.175-36.542-23.225a71.428 71.428 0 0 1-12.191-8.76c79.975-56.987 186.726-59.04 268.832-5.172zM124.739 455.675C57.586 411.479 17.17 336.467 17.197 256.075a238.549 238.549 0 0 1 86.82-184.118c15.51 12.99 20.406 14.67 23.701 15.034a49.933 49.933 0 0 1 23.171 12.817 63.432 63.432 0 0 0 12.5 17.917l-4.563 15.042h-2.754a11.467 11.467 0 0 1-8.35-3.65 28.128 28.128 0 0 0-21.187-9.575h-24.7a28.417 28.417 0 0 0-24.417 13.933l-5.917 10.058c-.51.842-1.11 1.627-1.787 2.342l-18.667 18.85a28.54 28.54 0 0 0-8.25 20.267V200.1a29.004 29.004 0 0 0 6.771 18.558l14.517 17.159a28.27 28.27 0 0 0 24.771 9.883l23-2.558a11.12 11.12 0 0 1 6.613 1.317l.837.383a11.604 11.604 0 0 1 6.333 10.467v1.533a28.544 28.544 0 0 0 1.808 10.058l11.504 30.908c.037.175.071.333.096.425l16.204 65.592-1.621 1.567a16.915 16.915 0 0 0-2.771 18.825 15.298 15.298 0 0 0 13.617 8.392h17.229a16.246 16.246 0 0 0 14.608-9.1l18.496-37.45a18.65 18.65 0 0 1 2.025-3.25l16.85-22.825a39.408 39.408 0 0 0 7.475-29.217l-.838-5.733a22.547 22.547 0 0 1 3.75-16.042l1.675-1.958a97.266 97.266 0 0 0 1.838-2.142l18.308-21.133a1032.827 1032.827 0 0 1 17.708-19.833 20.585 20.585 0 0 0 6.913-18.674 18.831 18.831 0 0 0-13.021-13.742 28.841 28.841 0 0 0-21.6 4.067c-1.829.942-3.658 1.958-5.475 2.975-1.237.691-2.467 1.383-3.683 2.033l-21.55-41.45a73.245 73.245 0 0 1 2.929-23.558 466.698 466.698 0 0 1 63.846-7.517 8.719 8.719 0 0 0 2.558-.583c10.45-4.15 23.708-10.45 27.479-16.8a237.792 237.792 0 0 1 23.592-22l58.084-20.329a239.402 239.402 0 0 1 84.177 129.473l-3.103-1.628a31.336 31.336 0 0 0-18.871-3.358l-44.012 5.792c-8.199.943-14.378 7.897-14.35 16.15v7.85h-8.875a16.65 16.65 0 0 0-13.95 7.717l-2.846 4.483a46.807 46.807 0 0 0-5.008 38.975l6.754 21.742-5.979 2.067a16.35 16.35 0 0 0-9.646 9.125 16.104 16.104 0 0 0 .341 13.058l19.808 42.025-12.571.15-23.829-19.008a16.733 16.733 0 0 0-14.846-2.717l-35.154 10.6a16.347 16.347 0 0 0-7.109 26.675l4.888 5.233a16.9 16.9 0 0 0 6.379 4.083l14.342 4.583v15.867a18.087 18.087 0 0 0 1.5 6.975l28.885 61.241c-73.823 31.821-158.704 24.37-225.858-19.826zm241.258 12.47-28.717-60.861v-15.867a16.39 16.39 0 0 0-10.912-15.475l-14.588-5.025-3.854-4.133 33.337-10.342 23.575 18.808a16.594 16.594 0 0 0 10.333 3.617h13.992a16.42 16.42 0 0 0 13.871-7.5 16.203 16.203 0 0 0 1.1-15.592L384.16 313.4l5.862-2.025c8.207-2.923 12.661-11.787 10.108-20.117l-7.013-22.575a29.752 29.752 0 0 1 3.171-24.767l2.35-4.225h9.554c8.999.037 16.33-7.217 16.388-16.217v-7.992l43.617-5.742a14.132 14.132 0 0 1 8.65 1.583l3.404 1.784a31.968 31.968 0 0 0 11.474 3.385c17.301 102.305-33.534 204.055-125.728 251.653z"/></symbol><symbol viewBox="0 0 17 17" id="in" xmlns="http://www.w3.org/2000/svg"><path d="M4.14 16.5V5.988H.872V16.5h3.27ZM2.489 4.582c1.055 0 1.899-.879 1.899-1.934 0-1.02-.844-1.863-1.899-1.863-1.02 0-1.863.844-1.863 1.863 0 1.055.844 1.934 1.863 1.934ZM16.34 16.5h.035v-5.766c0-2.812-.633-4.992-3.938-4.992-1.582 0-2.636.88-3.093 1.688h-.035V5.988h-3.13V16.5h3.27v-5.203c0-1.371.246-2.672 1.934-2.672 1.687 0 1.723 1.547 1.723 2.777V16.5h3.234Z"/></symbol><symbol viewBox="0 0 18 18" id="inst" xmlns="http://www.w3.org/2000/svg"><path d="M9 4.607a4.268 4.268 0 0 0-4.268 4.268A4.245 4.245 0 0 0 9 13.143a4.268 4.268 0 0 0 4.268-4.268c0-2.338-1.93-4.268-4.268-4.268Zm0 7.051a2.78 2.78 0 0 1-2.783-2.783C6.217 7.354 7.44 6.129 9 6.129a2.74 2.74 0 0 1 2.746 2.746c0 1.559-1.225 2.783-2.746 2.783Zm5.418-7.199a.998.998 0 0 0-1.002-1.002.998.998 0 0 0-1.002 1.002.998.998 0 0 0 1.002 1.002.998.998 0 0 0 1.002-1.002Zm2.82 1.002c-.074-1.336-.37-2.524-1.336-3.488C14.938 1.008 13.75.71 12.414.637 11.041.562 6.922.562 5.55.637c-1.336.074-2.487.37-3.488 1.336C1.096 2.937.799 4.125.725 5.46c-.075 1.373-.075 5.492 0 6.865.074 1.336.37 2.486 1.336 3.489 1.002.964 2.152 1.261 3.488 1.335 1.373.075 5.492.075 6.865 0 1.336-.074 2.524-.37 3.488-1.335.965-1.002 1.262-2.153 1.336-3.489.075-1.373.075-5.492 0-6.865Zm-1.781 8.312c-.26.743-.854 1.3-1.559 1.596-1.113.446-3.71.334-4.898.334-1.225 0-3.822.112-4.898-.334a2.813 2.813 0 0 1-1.596-1.596c-.445-1.076-.334-3.673-.334-4.898 0-1.188-.111-3.785.334-4.898a2.862 2.862 0 0 1 1.596-1.559C5.178 1.973 7.775 2.084 9 2.084c1.188 0 3.785-.111 4.898.334.706.26 1.262.853 1.559 1.559.445 1.113.334 3.71.334 4.898 0 1.225.111 3.822-.334 4.898Z"/></symbol><symbol viewBox="0 0 455 455" xml:space="preserve" id="minus" xmlns="http://www.w3.org/2000/svg"><path d="M0 212.5h455v30H0z"/></symbol><symbol viewBox="0 0 512.021 512.021" id="phone" xmlns="http://www.w3.org/2000/svg"><path d="M367.988 512.021c-16.528 0-32.916-2.922-48.941-8.744-70.598-25.646-136.128-67.416-189.508-120.795S34.389 263.572 8.744 192.974c-8.241-22.688-10.673-46.108-7.226-69.612 3.229-22.016 11.757-43.389 24.663-61.809 12.963-18.501 30.245-33.889 49.977-44.5C97.2 5.738 120.167 0 144.423 0a16.002 16.002 0 0 1 15.645 12.647l25.114 117.199a16.004 16.004 0 0 1-4.331 14.667l-42.913 42.912c40.482 80.486 106.17 146.174 186.656 186.656l42.912-42.913a16.01 16.01 0 0 1 14.667-4.331l117.199 25.114a16 16 0 0 1 12.647 15.645c0 24.256-5.738 47.224-17.054 68.266-10.611 19.732-25.999 37.014-44.5 49.977-18.419 12.906-39.792 21.434-61.809 24.663a142.318 142.318 0 0 1-20.668 1.519zM131.639 32.7c-31.995 3.532-60.393 20.302-79.251 47.217-21.206 30.265-26.151 67.49-13.567 102.132C88.125 317.775 194.246 423.896 329.972 473.2c34.641 12.584 71.866 7.64 102.132-13.567 26.915-18.858 43.685-47.256 47.217-79.251l-95.341-20.43-44.816 44.816a15.998 15.998 0 0 1-18.117 3.168c-95.19-44.72-172.242-121.772-216.962-216.962a15.999 15.999 0 0 1 3.168-18.117l44.816-44.816z"/></symbol><symbol viewBox="0 0 485 485" xml:space="preserve" id="plus" xmlns="http://www.w3.org/2000/svg"><path d="M485 227.5H257.5V0h-30v227.5H0v30h227.5V485h30V257.5H485z"/></symbol><symbol viewBox="0 0 93 93" id="services-01" xmlns="http://www.w3.org/2000/svg"><path d="M92.5 89.835h-2.968v2.968H92.5v-2.968ZM71.726 15.641V3.771H47.984V.801h-2.968V3.77H21.274v32.063l-8.903-5.14v-.213h-.367l-.321-.186-.108.186H.5v20.774a5.941 5.941 0 0 0 5.935 5.936h14.84v5.935h13.028l-5.342 26.71H.5v2.968h86.064v-2.968H64.04l-5.342-26.71h13.029V39.383h11.87v-2.968h-2.552l2.686-10.74L78.23 18.8c5.57.976 9.82 5.835 9.82 11.68h2.967c0-4.856-2.356-9.163-5.974-11.871H92.5V15.64H71.726ZM9.403 51.254a2.972 2.972 0 0 1-2.968 2.968 2.972 2.972 0 0 1-2.967-2.968V33.448h5.935v17.806Zm10.968-11.472 2.968 5.138-9.59 5.538 5.934-10.28.688-.396Zm-8-4.743.399-.692 5.138 2.968-5.537 9.593V35.04Zm.792 19.183 10.281-5.936h.798v5.936H13.163Zm31.853 35.613H31.988l5.342-26.71h7.686v26.71Zm15.996 0H47.984v-26.71h7.686l5.342 26.71Zm7.612-64.16 2.686 10.74h-2.552v23.742H24.242V57.19h2.968V46.112l.183-.107-.183-.317v-.37h-.214l-2.754-4.77V6.738h44.516v8.903h-8.903v2.968h7.458c-3.619 2.708-5.974 7.015-5.974 11.87h2.968c0-5.844 4.249-10.703 9.819-11.68l-5.502 6.877Zm11.872.708-2.508 10.032h-3.62l-2.509-10.034 2.835-3.543v6.158h2.967V22.84l2.835 3.543Z"/><path d="M33.145 12.673h-2.968v2.968h2.968v-2.968ZM62.822 51.254h-2.967v2.968h2.968v-2.968ZM59.855 33.448c0-7.364-5.991-13.355-13.355-13.355-2.4 0-4.65.645-6.6 1.758l-4.07-5.598L33.428 18l4.077 5.605c-2.673 2.443-4.36 5.945-4.36 9.844 0 7.363 5.99 13.354 13.354 13.354 2.4 0 4.65-.645 6.6-1.758l4.07 5.598 2.401-1.745-4.077-5.606c2.673-2.443 4.36-5.944 4.36-9.843ZM46.5 43.835c-5.726 0-10.387-4.662-10.387-10.387 0-2.913 1.21-5.546 3.148-7.433l12.082 16.616a10.347 10.347 0 0 1-4.843 1.204Zm-4.843-19.569a10.327 10.327 0 0 1 4.843-1.205c5.726 0 10.387 4.66 10.387 10.387 0 2.912-1.21 5.546-3.148 7.432L41.657 24.266Z"/></symbol><symbol viewBox="0 0 86 87" id="services-02" xmlns="http://www.w3.org/2000/svg"><path d="M58.767 76.374H55.9V14.741c0-.287-.143-.717-.286-.86L51.457 1.41C51.314.837 50.74.407 50.167.407c-.573 0-1.147.43-1.29 1.004L44.72 13.88c-.143.287-.286.573-.286.86v70.233c0 .86.573 1.433 1.433 1.433h8.6c.86 0 1.433-.573 1.433-1.433v-5.733h4.3c.86 0 1.434-.573 1.434-1.433v-43h-2.867v41.566ZM47.3 16.174h5.734v51.6H47.3v-51.6Zm2.867-9.747 2.293 6.88h-4.586l2.293-6.88Zm2.867 77.114H47.3v-12.9h5.734v12.9ZM84.566.407H68.8c-.86 0-1.433.574-1.433 1.434v83.133c0 .86.573 1.433 1.433 1.433h15.767c.86 0 1.433-.573 1.433-1.433V1.841c0-.86-.573-1.434-1.433-1.434Zm-1.433 83.134h-12.9V73.507h7.166v-2.866h-7.166V59.174h7.166v-2.867h-7.166V44.841h7.166v-2.867h-7.166V30.508h7.166V27.64h-7.166V16.174h7.166v-2.867h-7.166V3.274h12.9v80.267ZM20.067 14.74C9.03 14.74 0 23.77 0 34.808c0 7.74 4.443 14.764 11.467 18.06v17.774c0 .86.573 1.433 1.433 1.433h5.733v4.3H21.5v-4.3h5.733c.86 0 1.434-.573 1.434-1.433V52.868a19.914 19.914 0 0 0 11.466-18.06c0-11.037-9.03-20.067-20.066-20.067ZM25.8 69.208H14.333v-4.3H25.8v4.3Zm.86-18.49c-.573.144-.86.717-.86 1.29v10.034H14.333v-2.867H21.5v-2.867h-7.167v-4.3c0-.573-.286-1.146-.86-1.29-6.45-2.723-10.606-9.03-10.606-15.91 0-9.46 7.74-17.2 17.2-17.2 9.46 0 17.2 7.74 17.2 17.2 0 6.88-4.157 13.187-10.607 15.91Z"/><path d="m23.364 26.637-3.297 3.297-3.297-3.297-2.006 2.007 3.87 3.87v15.194H21.5V32.514l3.87-3.87-2.006-2.006Z"/></symbol><symbol viewBox="0 0 90 91" id="services-03" xmlns="http://www.w3.org/2000/svg"><path d="M90 42.61v-3.646L46.922 7.77h-3.844l-9.69 7.016V9.222h2.902V.512H7.258v8.71h2.903v22.384L0 38.964v3.645h7.258v21.774H0v20.323h7.258v5.806h75.484V60.03A7.265 7.265 0 0 0 90 52.77a7.265 7.265 0 0 0-7.258-7.258V42.61H90ZM10.161 3.415h23.226v2.903H10.161V3.416Zm20.323 5.806v7.668l-17.42 12.615V9.222h17.42ZM5.806 75.996v5.807H2.903V67.287h66.774v14.516h-2.903v-5.807h-2.903v5.807h-2.903v-5.807h-2.904v5.807h-2.903v-5.807h-2.903v5.807h-2.903v-5.807h-2.903v5.807h-2.904v-5.807h-2.903v5.807h-2.903v-5.807h-2.903v5.807h-2.903v-5.807h-2.904v5.807H26.13v-5.807h-2.903v5.807h-2.903v-5.807h-2.904v5.807h-2.903v-5.807h-2.903v5.807H8.71v-5.807H5.806ZM79.84 87.61H10.16v-2.903h62.42V64.383H10.16V42.61H79.84v2.904H27.142L16.254 52.77l10.887 7.258H79.84v27.58Zm-2.903-39.193v8.71h-2.904v-8.71h2.904Zm-46.452 2.903v-2.903h40.645v2.903H30.484Zm40.645 2.903v2.903H30.484v-2.903h40.645ZM27.581 48.71v8.123l-6.093-4.063 6.093-4.06Zm59.516 4.06a4.36 4.36 0 0 1-4.355 4.355h-2.903v-8.71h2.903a4.36 4.36 0 0 1 4.355 4.355ZM3.927 39.706l40.091-29.032h1.964l40.091 29.032H3.927Z"/><path d="M45 15.028c-6.403 0-11.613 5.21-11.613 11.613S38.597 38.254 45 38.254s11.613-5.21 11.613-11.613S51.403 15.028 45 15.028Zm0 20.323c-4.803 0-8.71-3.907-8.71-8.71 0-4.803 3.907-8.71 8.71-8.71 4.803 0 8.71 3.907 8.71 8.71 0 4.803-3.907 8.71-8.71 8.71Z"/></symbol><symbol viewBox="0 0 87 95" id="services-04" xmlns="http://www.w3.org/2000/svg"><path d="M87 21.18V.617H57.34V32.93H51.41v17.625H25.705V68.18H0v26.437h80.08V32.93H60.307V21.18H87ZM60.307 3.555h23.727v14.687H60.307V3.555ZM28.67 53.492h22.74v4.897H28.67v-4.897ZM2.966 71.117h22.74v4.897H2.965v-4.897ZM77.114 91.68H2.966V78.95h22.74v6.366h2.965v-23.99h22.74v10.28h2.966V43.702h22.737V91.68Zm0-55.813v4.897h-22.74v-4.897h22.74Z"/><path d="M79.585 6.492h-6.92V9.43h6.92V6.492ZM79.585 12.367h-14.83v2.938h14.83v-2.938ZM32.13 11.389v2.937h8.284L3.4 50.984l2.098 2.079 37.013-36.66v6.246h2.966v-11.26H32.13ZM9.39 81.889H5.438v2.937H9.39V81.89ZM23.233 81.889h-3.954v2.937h3.954V81.89ZM35.096 64.264h-3.954V67.2h3.954v-2.937ZM48.938 64.264h-3.954V67.2h3.954v-2.937ZM60.802 46.639h-3.954v2.937h3.954V46.64ZM74.641 46.639h-3.954v2.937h3.954V46.64Z"/></symbol><symbol viewBox="0 0 19 16" id="twit" xmlns="http://www.w3.org/2000/svg"><path d="M16.637 4.094a7.818 7.818 0 0 0 1.828-1.899 6.918 6.918 0 0 1-2.11.563 3.607 3.607 0 0 0 1.618-2.04 7.798 7.798 0 0 1-2.32.915 3.691 3.691 0 0 0-2.708-1.16 3.69 3.69 0 0 0-3.691 3.691c0 .281.035.563.105.844A10.71 10.71 0 0 1 1.73 1.14a3.59 3.59 0 0 0-.492 1.863c0 1.266.633 2.39 1.653 3.058-.598-.035-1.196-.175-1.688-.457v.036a3.696 3.696 0 0 0 2.953 3.62c-.281.071-.633.141-.949.141-.246 0-.457-.035-.703-.07.457 1.477 1.828 2.531 3.445 2.566a7.422 7.422 0 0 1-4.57 1.582c-.317 0-.598-.035-.879-.07 1.617 1.055 3.55 1.652 5.66 1.652 6.785 0 10.477-5.59 10.477-10.476v-.492Z"/></symbol></svg>